<mxfile host="app.diagrams.net" agent="Mozilla/5.0 (X11; Ubuntu; Linux x86_64; rv:135.0) Gecko/20100101 Firefox/135.0" version="26.0.15">
  <diagram id="C5RBs43oDa-KdzZeNtuy" name="Page-1">
    <mxGraphModel dx="3955" dy="2955" grid="1" gridSize="10" guides="1" tooltips="1" connect="1" arrows="1" fold="1" page="1" pageScale="1" pageWidth="827" pageHeight="1169" math="0" shadow="0">
      <root>
        <mxCell id="WIyWlLk6GJQsqaUBKTNV-0" />
        <mxCell id="WIyWlLk6GJQsqaUBKTNV-1" parent="WIyWlLk6GJQsqaUBKTNV-0" />
        <mxCell id="WIyWlLk6GJQsqaUBKTNV-2" value="" style="rounded=0;html=1;jettySize=auto;orthogonalLoop=1;fontSize=15;endArrow=block;endFill=0;endSize=8;strokeWidth=1;shadow=0;labelBackgroundColor=none;edgeStyle=orthogonalEdgeStyle;entryX=0.5;entryY=0;entryDx=0;entryDy=0;exitX=0.5;exitY=1;exitDx=0;exitDy=0;movable=0;resizable=0;rotatable=0;deletable=0;editable=0;locked=1;connectable=0;" parent="WIyWlLk6GJQsqaUBKTNV-1" source="WIyWlLk6GJQsqaUBKTNV-3" target="C1XkWUGmLGse987wi63i-9" edge="1">
          <mxGeometry relative="1" as="geometry">
            <mxPoint x="215" y="360" as="sourcePoint" />
            <mxPoint x="225" y="460" as="targetPoint" />
            <Array as="points" />
          </mxGeometry>
        </mxCell>
        <mxCell id="WIyWlLk6GJQsqaUBKTNV-3" value="Object detection and object tracking" style="rounded=1;whiteSpace=wrap;html=1;fontSize=15;glass=0;strokeWidth=1;shadow=0;movable=0;resizable=0;rotatable=0;deletable=0;editable=0;locked=1;connectable=0;" parent="WIyWlLk6GJQsqaUBKTNV-1" vertex="1">
          <mxGeometry x="155" y="290" width="130" height="50" as="geometry" />
        </mxCell>
        <mxCell id="WIyWlLk6GJQsqaUBKTNV-4" value="Yes" style="rounded=0;html=1;jettySize=auto;orthogonalLoop=1;fontSize=15;endArrow=block;endFill=0;endSize=8;strokeWidth=1;shadow=0;labelBackgroundColor=none;edgeStyle=orthogonalEdgeStyle;entryX=0.5;entryY=0;entryDx=0;entryDy=0;movable=0;resizable=0;rotatable=0;deletable=0;editable=0;locked=1;connectable=0;" parent="WIyWlLk6GJQsqaUBKTNV-1" source="WIyWlLk6GJQsqaUBKTNV-6" target="C1XkWUGmLGse987wi63i-12" edge="1">
          <mxGeometry y="20" relative="1" as="geometry">
            <mxPoint as="offset" />
            <mxPoint x="220" y="740" as="targetPoint" />
          </mxGeometry>
        </mxCell>
        <mxCell id="WIyWlLk6GJQsqaUBKTNV-5" value="No" style="edgeStyle=orthogonalEdgeStyle;rounded=0;html=1;jettySize=auto;orthogonalLoop=1;fontSize=15;endArrow=block;endFill=0;endSize=8;strokeWidth=1;shadow=0;labelBackgroundColor=none;movable=0;resizable=0;rotatable=0;deletable=0;editable=0;locked=1;connectable=0;" parent="WIyWlLk6GJQsqaUBKTNV-1" source="WIyWlLk6GJQsqaUBKTNV-6" edge="1">
          <mxGeometry x="-0.0033" y="10" relative="1" as="geometry">
            <mxPoint x="-8" y="-10" as="offset" />
            <mxPoint x="429.9999999999991" y="660" as="targetPoint" />
          </mxGeometry>
        </mxCell>
        <mxCell id="WIyWlLk6GJQsqaUBKTNV-6" value="Vehicle in detection zone" style="rhombus;whiteSpace=wrap;html=1;shadow=0;fontFamily=Helvetica;fontSize=15;align=center;strokeWidth=1;spacing=6;spacingTop=-4;movable=0;resizable=0;rotatable=0;deletable=0;editable=0;locked=1;connectable=0;" parent="WIyWlLk6GJQsqaUBKTNV-1" vertex="1">
          <mxGeometry x="155" y="610" width="130" height="100" as="geometry" />
        </mxCell>
        <mxCell id="WIyWlLk6GJQsqaUBKTNV-7" value="Go to next vehicle" style="rounded=1;whiteSpace=wrap;html=1;fontSize=15;glass=0;strokeWidth=1;shadow=0;movable=0;resizable=0;rotatable=0;deletable=0;editable=0;locked=1;connectable=0;" parent="WIyWlLk6GJQsqaUBKTNV-1" vertex="1">
          <mxGeometry x="426" y="640" width="120" height="40" as="geometry" />
        </mxCell>
        <mxCell id="C1XkWUGmLGse987wi63i-2" value="Iterate through camera stream" style="rounded=1;whiteSpace=wrap;html=1;fontSize=15;glass=0;strokeWidth=1;shadow=0;movable=0;resizable=0;rotatable=0;deletable=0;editable=0;locked=1;connectable=0;" vertex="1" parent="WIyWlLk6GJQsqaUBKTNV-1">
          <mxGeometry x="160" y="-50" width="120" height="40" as="geometry" />
        </mxCell>
        <mxCell id="C1XkWUGmLGse987wi63i-4" value="Define detection zone and ROI mapping" style="rounded=1;whiteSpace=wrap;html=1;fontSize=15;movable=0;resizable=0;rotatable=0;deletable=0;editable=0;locked=1;connectable=0;" vertex="1" parent="WIyWlLk6GJQsqaUBKTNV-1">
          <mxGeometry x="-100" y="230" width="140" height="60" as="geometry" />
        </mxCell>
        <mxCell id="C1XkWUGmLGse987wi63i-9" value="Iterate through tracked vehicles in frame" style="shape=process;whiteSpace=wrap;html=1;backgroundOutline=1;fontSize=15;movable=0;resizable=0;rotatable=0;deletable=0;editable=0;locked=1;connectable=0;" vertex="1" parent="WIyWlLk6GJQsqaUBKTNV-1">
          <mxGeometry x="145" y="460" width="150" height="60" as="geometry" />
        </mxCell>
        <mxCell id="C1XkWUGmLGse987wi63i-11" value="" style="endArrow=classic;html=1;rounded=0;exitX=0.5;exitY=1;exitDx=0;exitDy=0;fontSize=15;movable=0;resizable=0;rotatable=0;deletable=0;editable=0;locked=1;connectable=0;" edge="1" parent="WIyWlLk6GJQsqaUBKTNV-1" source="C1XkWUGmLGse987wi63i-9" target="WIyWlLk6GJQsqaUBKTNV-6">
          <mxGeometry width="50" height="50" relative="1" as="geometry">
            <mxPoint x="360" y="690" as="sourcePoint" />
            <mxPoint x="410" y="640" as="targetPoint" />
          </mxGeometry>
        </mxCell>
        <mxCell id="C1XkWUGmLGse987wi63i-12" value="Estimate speed and increment &lt;i&gt;vehicles_in_zone &lt;/i&gt;by 1" style="rounded=1;whiteSpace=wrap;html=1;fontSize=15;glass=0;strokeWidth=1;shadow=0;movable=0;resizable=0;rotatable=0;deletable=0;editable=0;locked=1;connectable=0;" vertex="1" parent="WIyWlLk6GJQsqaUBKTNV-1">
          <mxGeometry x="125" y="790" width="190" height="90" as="geometry" />
        </mxCell>
        <mxCell id="C1XkWUGmLGse987wi63i-14" value="Initialize empty list &lt;i&gt;vehicles_in_q &lt;/i&gt;and counter &lt;i&gt;vehicles_in_zone&lt;/i&gt;" style="rounded=1;whiteSpace=wrap;html=1;fontSize=15;movable=0;resizable=0;rotatable=0;deletable=0;editable=0;locked=1;connectable=0;" vertex="1" parent="WIyWlLk6GJQsqaUBKTNV-1">
          <mxGeometry x="380" y="360" width="180" height="70" as="geometry" />
        </mxCell>
        <mxCell id="C1XkWUGmLGse987wi63i-15" value="" style="edgeStyle=orthogonalEdgeStyle;rounded=0;orthogonalLoop=1;jettySize=auto;html=1;exitX=0;exitY=0.5;exitDx=0;exitDy=0;fontSize=15;movable=0;resizable=0;rotatable=0;deletable=0;editable=0;locked=1;connectable=0;" edge="1" parent="WIyWlLk6GJQsqaUBKTNV-1">
          <mxGeometry relative="1" as="geometry">
            <mxPoint x="383.9999999999991" y="400" as="sourcePoint" />
            <mxPoint x="220" y="400" as="targetPoint" />
          </mxGeometry>
        </mxCell>
        <mxCell id="C1XkWUGmLGse987wi63i-16" value="&lt;div&gt;Vehicle speed&amp;nbsp;&lt;/div&gt;&lt;div&gt;&amp;lt;=&lt;/div&gt;&lt;div&gt;&lt;i&gt;thres_speed&lt;/i&gt;&lt;/div&gt;" style="rhombus;whiteSpace=wrap;html=1;shadow=0;fontFamily=Helvetica;fontSize=15;align=center;strokeWidth=1;spacing=6;spacingTop=-4;movable=0;resizable=0;rotatable=0;deletable=0;editable=0;locked=1;connectable=0;" vertex="1" parent="WIyWlLk6GJQsqaUBKTNV-1">
          <mxGeometry x="142.5" y="970" width="155" height="140" as="geometry" />
        </mxCell>
        <mxCell id="C1XkWUGmLGse987wi63i-17" value="" style="endArrow=classic;html=1;rounded=0;exitX=0.5;exitY=1;exitDx=0;exitDy=0;entryX=0.5;entryY=0;entryDx=0;entryDy=0;fontSize=15;movable=0;resizable=0;rotatable=0;deletable=0;editable=0;locked=1;connectable=0;" edge="1" parent="WIyWlLk6GJQsqaUBKTNV-1" source="C1XkWUGmLGse987wi63i-12" target="C1XkWUGmLGse987wi63i-16">
          <mxGeometry width="50" height="50" relative="1" as="geometry">
            <mxPoint x="219.66" y="890" as="sourcePoint" />
            <mxPoint x="219.66" y="980" as="targetPoint" />
          </mxGeometry>
        </mxCell>
        <mxCell id="C1XkWUGmLGse987wi63i-18" value="Yes" style="rounded=0;html=1;jettySize=auto;orthogonalLoop=1;fontSize=15;endArrow=block;endFill=0;endSize=8;strokeWidth=1;shadow=0;labelBackgroundColor=none;edgeStyle=orthogonalEdgeStyle;entryX=0.5;entryY=0;entryDx=0;entryDy=0;movable=0;resizable=0;rotatable=0;deletable=0;editable=0;locked=1;connectable=0;" edge="1" parent="WIyWlLk6GJQsqaUBKTNV-1" target="C1XkWUGmLGse987wi63i-19">
          <mxGeometry x="0.2108" y="20" relative="1" as="geometry">
            <mxPoint as="offset" />
            <mxPoint x="219.66" y="1110" as="sourcePoint" />
            <mxPoint x="219.66" y="1190" as="targetPoint" />
          </mxGeometry>
        </mxCell>
        <mxCell id="C1XkWUGmLGse987wi63i-19" value="Add vehicle to &lt;i&gt;vehicles_in_q&lt;/i&gt;" style="rounded=1;whiteSpace=wrap;html=1;fontSize=15;movable=0;resizable=0;rotatable=0;deletable=0;editable=0;locked=1;connectable=0;" vertex="1" parent="WIyWlLk6GJQsqaUBKTNV-1">
          <mxGeometry x="160" y="1210" width="120" height="60" as="geometry" />
        </mxCell>
        <mxCell id="C1XkWUGmLGse987wi63i-20" value="&lt;div&gt;q_len = -1&lt;/div&gt;&lt;div&gt;time_elapsed = 0&lt;/div&gt;&lt;div&gt;set &lt;i&gt;thres_speed, rec_freq&lt;/i&gt;&lt;/div&gt;" style="rounded=1;whiteSpace=wrap;html=1;fontSize=15;movable=0;resizable=0;rotatable=0;deletable=0;editable=0;locked=1;connectable=0;" vertex="1" parent="WIyWlLk6GJQsqaUBKTNV-1">
          <mxGeometry x="160" y="-200" width="120" height="80" as="geometry" />
        </mxCell>
        <mxCell id="C1XkWUGmLGse987wi63i-22" value="" style="endArrow=classic;html=1;rounded=0;exitX=0.5;exitY=1;exitDx=0;exitDy=0;entryX=0.5;entryY=0;entryDx=0;entryDy=0;fontSize=15;movable=0;resizable=0;rotatable=0;deletable=0;editable=0;locked=1;connectable=0;" edge="1" parent="WIyWlLk6GJQsqaUBKTNV-1" source="C1XkWUGmLGse987wi63i-20" target="C1XkWUGmLGse987wi63i-2">
          <mxGeometry width="50" height="50" relative="1" as="geometry">
            <mxPoint x="360" y="330" as="sourcePoint" />
            <mxPoint x="410" y="280" as="targetPoint" />
          </mxGeometry>
        </mxCell>
        <mxCell id="C1XkWUGmLGse987wi63i-26" value="&lt;div&gt;&lt;i&gt;time_elapsed&lt;/i&gt;&lt;/div&gt;&lt;div&gt;&lt;i&gt;&amp;nbsp;&amp;gt;= &lt;br&gt;&lt;/i&gt;&lt;/div&gt;&lt;div&gt;&lt;i&gt;rec_freq&lt;/i&gt;&lt;/div&gt;" style="rhombus;whiteSpace=wrap;html=1;fontSize=15;movable=0;resizable=0;rotatable=0;deletable=0;editable=0;locked=1;connectable=0;" vertex="1" parent="WIyWlLk6GJQsqaUBKTNV-1">
          <mxGeometry x="152.5" y="50" width="135" height="140" as="geometry" />
        </mxCell>
        <mxCell id="C1XkWUGmLGse987wi63i-27" value="" style="endArrow=classic;html=1;rounded=0;exitX=0.5;exitY=1;exitDx=0;exitDy=0;entryX=0.5;entryY=0;entryDx=0;entryDy=0;fontSize=15;movable=0;resizable=0;rotatable=0;deletable=0;editable=0;locked=1;connectable=0;" edge="1" parent="WIyWlLk6GJQsqaUBKTNV-1" source="C1XkWUGmLGse987wi63i-2" target="C1XkWUGmLGse987wi63i-26">
          <mxGeometry width="50" height="50" relative="1" as="geometry">
            <mxPoint x="200" y="540" as="sourcePoint" />
            <mxPoint x="250" y="490" as="targetPoint" />
          </mxGeometry>
        </mxCell>
        <mxCell id="C1XkWUGmLGse987wi63i-29" value="Yes" style="rounded=0;html=1;jettySize=auto;orthogonalLoop=1;fontSize=15;endArrow=block;endFill=0;endSize=8;strokeWidth=1;shadow=0;labelBackgroundColor=none;edgeStyle=orthogonalEdgeStyle;entryX=0.5;entryY=0;entryDx=0;entryDy=0;exitX=1;exitY=0.5;exitDx=0;exitDy=0;movable=0;resizable=0;rotatable=0;deletable=0;editable=0;locked=1;connectable=0;" edge="1" parent="WIyWlLk6GJQsqaUBKTNV-1" source="C1XkWUGmLGse987wi63i-26" target="C1XkWUGmLGse987wi63i-31">
          <mxGeometry y="20" relative="1" as="geometry">
            <mxPoint as="offset" />
            <mxPoint x="360" y="110" as="sourcePoint" />
            <mxPoint x="360" y="190" as="targetPoint" />
          </mxGeometry>
        </mxCell>
        <mxCell id="C1XkWUGmLGse987wi63i-30" value="No" style="edgeStyle=orthogonalEdgeStyle;rounded=0;html=1;jettySize=auto;orthogonalLoop=1;fontSize=15;endArrow=block;endFill=0;endSize=8;strokeWidth=1;shadow=0;labelBackgroundColor=none;exitX=0.5;exitY=1;exitDx=0;exitDy=0;entryX=0.5;entryY=0;entryDx=0;entryDy=0;movable=0;resizable=0;rotatable=0;deletable=0;editable=0;locked=1;connectable=0;" edge="1" parent="WIyWlLk6GJQsqaUBKTNV-1" source="C1XkWUGmLGse987wi63i-26" target="WIyWlLk6GJQsqaUBKTNV-3">
          <mxGeometry x="-0.0909" y="20" relative="1" as="geometry">
            <mxPoint as="offset" />
            <mxPoint x="200" y="190" as="sourcePoint" />
            <mxPoint x="345" y="190" as="targetPoint" />
          </mxGeometry>
        </mxCell>
        <mxCell id="C1XkWUGmLGse987wi63i-31" value="&lt;div&gt;&lt;i&gt;time_elapsed = 0&lt;/i&gt;&lt;/div&gt;&lt;div&gt;&lt;i&gt;q_len = -1&lt;/i&gt;&lt;/div&gt;" style="rounded=1;whiteSpace=wrap;html=1;fontSize=15;movable=0;resizable=0;rotatable=0;deletable=0;editable=0;locked=1;connectable=0;" vertex="1" parent="WIyWlLk6GJQsqaUBKTNV-1">
          <mxGeometry x="400" y="150" width="120" height="60" as="geometry" />
        </mxCell>
        <mxCell id="C1XkWUGmLGse987wi63i-32" value="" style="endArrow=classic;html=1;rounded=0;exitX=0.5;exitY=1;exitDx=0;exitDy=0;fontSize=15;movable=0;resizable=0;rotatable=0;deletable=0;editable=0;locked=1;connectable=0;" edge="1" parent="WIyWlLk6GJQsqaUBKTNV-1" source="C1XkWUGmLGse987wi63i-31">
          <mxGeometry width="50" height="50" relative="1" as="geometry">
            <mxPoint x="320" y="350" as="sourcePoint" />
            <mxPoint x="220" y="260" as="targetPoint" />
            <Array as="points">
              <mxPoint x="460" y="260" />
            </Array>
          </mxGeometry>
        </mxCell>
        <mxCell id="C1XkWUGmLGse987wi63i-33" value="" style="endArrow=classic;html=1;rounded=0;exitX=1;exitY=0.5;exitDx=0;exitDy=0;fontSize=15;movable=0;resizable=0;rotatable=0;deletable=0;editable=0;locked=1;connectable=0;" edge="1" parent="WIyWlLk6GJQsqaUBKTNV-1" source="C1XkWUGmLGse987wi63i-4">
          <mxGeometry width="50" height="50" relative="1" as="geometry">
            <mxPoint x="200" y="470" as="sourcePoint" />
            <mxPoint x="220" y="260" as="targetPoint" />
          </mxGeometry>
        </mxCell>
        <mxCell id="C1XkWUGmLGse987wi63i-35" value="&lt;div&gt;&lt;i&gt;len(vehicles_in_q)&lt;/i&gt;&lt;/div&gt;&lt;div&gt;&lt;i&gt;&amp;gt;=&lt;/i&gt;&lt;/div&gt;&lt;div&gt;&lt;i&gt;0.5*vehicles_in_zone&lt;/i&gt;&lt;/div&gt;" style="rhombus;whiteSpace=wrap;html=1;fontSize=15;movable=0;resizable=0;rotatable=0;deletable=0;editable=0;locked=1;connectable=0;" vertex="1" parent="WIyWlLk6GJQsqaUBKTNV-1">
          <mxGeometry x="650" y="230" width="210" height="160" as="geometry" />
        </mxCell>
        <mxCell id="C1XkWUGmLGse987wi63i-37" value="No" style="edgeStyle=orthogonalEdgeStyle;rounded=0;html=1;jettySize=auto;orthogonalLoop=1;fontSize=15;endArrow=block;endFill=0;endSize=8;strokeWidth=1;shadow=0;labelBackgroundColor=none;exitX=1;exitY=0.5;exitDx=0;exitDy=0;entryX=0;entryY=0.5;entryDx=0;entryDy=0;entryPerimeter=0;movable=0;resizable=0;rotatable=0;deletable=0;editable=0;locked=1;connectable=0;" edge="1" parent="WIyWlLk6GJQsqaUBKTNV-1" source="C1XkWUGmLGse987wi63i-35" target="C1XkWUGmLGse987wi63i-39">
          <mxGeometry x="-0.0033" y="10" relative="1" as="geometry">
            <mxPoint x="-8" y="-10" as="offset" />
            <mxPoint x="891" y="310" as="sourcePoint" />
            <mxPoint x="995" y="300" as="targetPoint" />
          </mxGeometry>
        </mxCell>
        <mxCell id="C1XkWUGmLGse987wi63i-39" value="" style="verticalLabelPosition=bottom;verticalAlign=top;html=1;shape=mxgraph.flowchart.or;fontSize=15;movable=0;resizable=0;rotatable=0;deletable=0;editable=0;locked=1;connectable=0;" vertex="1" parent="WIyWlLk6GJQsqaUBKTNV-1">
          <mxGeometry x="1005" y="290" width="40" height="40" as="geometry" />
        </mxCell>
        <mxCell id="C1XkWUGmLGse987wi63i-40" value="" style="verticalLabelPosition=bottom;verticalAlign=top;html=1;shape=mxgraph.flowchart.or;fontSize=15;movable=0;resizable=0;rotatable=0;deletable=0;editable=0;locked=1;connectable=0;" vertex="1" parent="WIyWlLk6GJQsqaUBKTNV-1">
          <mxGeometry width="40" height="40" as="geometry" />
        </mxCell>
        <mxCell id="C1XkWUGmLGse987wi63i-41" value="" style="endArrow=classic;html=1;rounded=0;exitX=1;exitY=0.5;exitDx=0;exitDy=0;exitPerimeter=0;fontSize=15;movable=0;resizable=0;rotatable=0;deletable=0;editable=0;locked=1;connectable=0;" edge="1" parent="WIyWlLk6GJQsqaUBKTNV-1" source="C1XkWUGmLGse987wi63i-40">
          <mxGeometry width="50" height="50" relative="1" as="geometry">
            <mxPoint x="690" y="820" as="sourcePoint" />
            <mxPoint x="220" y="20" as="targetPoint" />
          </mxGeometry>
        </mxCell>
        <mxCell id="C1XkWUGmLGse987wi63i-42" value="No" style="edgeStyle=orthogonalEdgeStyle;rounded=0;html=1;jettySize=auto;orthogonalLoop=1;fontSize=15;endArrow=block;endFill=0;endSize=8;strokeWidth=1;shadow=0;labelBackgroundColor=none;exitX=1;exitY=0.5;exitDx=0;exitDy=0;entryX=0.5;entryY=1;entryDx=0;entryDy=0;movable=0;resizable=0;rotatable=0;deletable=0;editable=0;locked=1;connectable=0;" edge="1" parent="WIyWlLk6GJQsqaUBKTNV-1" source="C1XkWUGmLGse987wi63i-16" target="WIyWlLk6GJQsqaUBKTNV-7">
          <mxGeometry x="-0.0033" y="10" relative="1" as="geometry">
            <mxPoint x="-8" y="-10" as="offset" />
            <mxPoint x="321" y="1030" as="sourcePoint" />
            <mxPoint x="465.9999999999991" y="1030" as="targetPoint" />
          </mxGeometry>
        </mxCell>
        <mxCell id="C1XkWUGmLGse987wi63i-43" value="&lt;div&gt;&lt;br&gt;&lt;/div&gt;&lt;div&gt;Set &lt;i&gt;cur_q_len&lt;/i&gt; to&lt;i&gt; &lt;/i&gt;last vehicle in &lt;i&gt;vehicles_in_zone&lt;/i&gt;&lt;/div&gt;&lt;div&gt;&lt;i&gt;&lt;br&gt;&lt;/i&gt;&lt;/div&gt;" style="rounded=1;whiteSpace=wrap;html=1;fontSize=15;movable=0;resizable=0;rotatable=0;deletable=0;editable=0;locked=1;connectable=0;" vertex="1" parent="WIyWlLk6GJQsqaUBKTNV-1">
          <mxGeometry x="680" y="460" width="150" height="70" as="geometry" />
        </mxCell>
        <mxCell id="C1XkWUGmLGse987wi63i-44" value="" style="endArrow=classic;html=1;rounded=0;exitX=0.5;exitY=1;exitDx=0;exitDy=0;entryX=0.5;entryY=0;entryDx=0;entryDy=0;fontSize=15;movable=0;resizable=0;rotatable=0;deletable=0;editable=0;locked=1;connectable=0;" edge="1" parent="WIyWlLk6GJQsqaUBKTNV-1" source="C1XkWUGmLGse987wi63i-35" target="C1XkWUGmLGse987wi63i-43">
          <mxGeometry width="50" height="50" relative="1" as="geometry">
            <mxPoint x="755" y="-20" as="sourcePoint" />
            <mxPoint x="805" y="-70" as="targetPoint" />
          </mxGeometry>
        </mxCell>
        <mxCell id="C1XkWUGmLGse987wi63i-45" value="&lt;div&gt;cur_q_len&lt;/div&gt;&lt;div&gt;&amp;gt;=&lt;/div&gt;&lt;div&gt;q_len&lt;/div&gt;" style="rhombus;whiteSpace=wrap;html=1;fontStyle=2;fontSize=15;movable=0;resizable=0;rotatable=0;deletable=0;editable=0;locked=1;connectable=0;" vertex="1" parent="WIyWlLk6GJQsqaUBKTNV-1">
          <mxGeometry x="692.5" y="575" width="125" height="110" as="geometry" />
        </mxCell>
        <mxCell id="C1XkWUGmLGse987wi63i-46" value="" style="endArrow=classic;html=1;rounded=0;exitX=0.5;exitY=1;exitDx=0;exitDy=0;entryX=0.5;entryY=0;entryDx=0;entryDy=0;fontSize=15;movable=0;resizable=0;rotatable=0;deletable=0;editable=0;locked=1;connectable=0;" edge="1" parent="WIyWlLk6GJQsqaUBKTNV-1" source="C1XkWUGmLGse987wi63i-43" target="C1XkWUGmLGse987wi63i-45">
          <mxGeometry width="50" height="50" relative="1" as="geometry">
            <mxPoint x="775" y="270" as="sourcePoint" />
            <mxPoint x="825" y="220" as="targetPoint" />
          </mxGeometry>
        </mxCell>
        <mxCell id="C1XkWUGmLGse987wi63i-50" value="Yes" style="rounded=0;html=1;jettySize=auto;orthogonalLoop=1;fontSize=15;endArrow=block;endFill=0;endSize=8;strokeWidth=1;shadow=0;labelBackgroundColor=none;edgeStyle=orthogonalEdgeStyle;entryX=0.5;entryY=0;entryDx=0;entryDy=0;exitX=0.5;exitY=1;exitDx=0;exitDy=0;movable=0;resizable=0;rotatable=0;deletable=0;editable=0;locked=1;connectable=0;" edge="1" parent="WIyWlLk6GJQsqaUBKTNV-1" source="C1XkWUGmLGse987wi63i-45" target="C1XkWUGmLGse987wi63i-52">
          <mxGeometry x="0.2108" y="20" relative="1" as="geometry">
            <mxPoint as="offset" />
            <mxPoint x="754.52" y="673" as="sourcePoint" />
            <mxPoint x="754.86" y="773" as="targetPoint" />
          </mxGeometry>
        </mxCell>
        <mxCell id="C1XkWUGmLGse987wi63i-51" value="No" style="edgeStyle=orthogonalEdgeStyle;rounded=0;html=1;jettySize=auto;orthogonalLoop=1;fontSize=15;endArrow=block;endFill=0;endSize=8;strokeWidth=1;shadow=0;labelBackgroundColor=none;exitX=1;exitY=0.5;exitDx=0;exitDy=0;entryX=1;entryY=0.5;entryDx=0;entryDy=0;movable=0;resizable=0;rotatable=0;deletable=0;editable=0;locked=1;connectable=0;" edge="1" parent="WIyWlLk6GJQsqaUBKTNV-1" source="C1XkWUGmLGse987wi63i-45" target="C1XkWUGmLGse987wi63i-53">
          <mxGeometry x="-0.0048" y="20" relative="1" as="geometry">
            <mxPoint as="offset" />
            <mxPoint x="820" y="629.72" as="sourcePoint" />
            <mxPoint x="885" y="890" as="targetPoint" />
            <Array as="points">
              <mxPoint x="935" y="630" />
              <mxPoint x="935" y="910" />
            </Array>
          </mxGeometry>
        </mxCell>
        <mxCell id="C1XkWUGmLGse987wi63i-52" value="&lt;i&gt;q_len &lt;/i&gt;= &lt;i&gt;cur_q_len&lt;/i&gt;" style="rounded=1;whiteSpace=wrap;html=1;fontSize=15;movable=0;resizable=0;rotatable=0;deletable=0;editable=0;locked=1;connectable=0;" vertex="1" parent="WIyWlLk6GJQsqaUBKTNV-1">
          <mxGeometry x="695" y="740" width="120" height="60" as="geometry" />
        </mxCell>
        <mxCell id="C1XkWUGmLGse987wi63i-53" value="Increment &lt;i&gt;time_elapsed &lt;/i&gt;by 1" style="rounded=1;whiteSpace=wrap;html=1;fontSize=15;movable=0;resizable=0;rotatable=0;deletable=0;editable=0;locked=1;connectable=0;" vertex="1" parent="WIyWlLk6GJQsqaUBKTNV-1">
          <mxGeometry x="695" y="880" width="120" height="60" as="geometry" />
        </mxCell>
        <mxCell id="C1XkWUGmLGse987wi63i-54" value="" style="endArrow=classic;html=1;rounded=0;exitX=0.5;exitY=1;exitDx=0;exitDy=0;entryX=0.5;entryY=0;entryDx=0;entryDy=0;fontSize=15;movable=0;resizable=0;rotatable=0;deletable=0;editable=0;locked=1;connectable=0;" edge="1" parent="WIyWlLk6GJQsqaUBKTNV-1" source="C1XkWUGmLGse987wi63i-52" target="C1XkWUGmLGse987wi63i-53">
          <mxGeometry width="50" height="50" relative="1" as="geometry">
            <mxPoint x="735" y="640" as="sourcePoint" />
            <mxPoint x="785" y="590" as="targetPoint" />
          </mxGeometry>
        </mxCell>
        <mxCell id="C1XkWUGmLGse987wi63i-56" value="" style="verticalLabelPosition=bottom;verticalAlign=top;html=1;shape=mxgraph.flowchart.or;fontSize=15;movable=0;resizable=0;rotatable=0;deletable=0;editable=0;locked=1;connectable=0;" vertex="1" parent="WIyWlLk6GJQsqaUBKTNV-1">
          <mxGeometry x="735" y="1000" width="40" height="40" as="geometry" />
        </mxCell>
        <mxCell id="C1XkWUGmLGse987wi63i-57" value="" style="endArrow=classic;html=1;rounded=0;exitX=0.5;exitY=1;exitDx=0;exitDy=0;entryX=0.5;entryY=0;entryDx=0;entryDy=0;entryPerimeter=0;fontSize=15;movable=0;resizable=0;rotatable=0;deletable=0;editable=0;locked=1;connectable=0;" edge="1" parent="WIyWlLk6GJQsqaUBKTNV-1" source="C1XkWUGmLGse987wi63i-53" target="C1XkWUGmLGse987wi63i-56">
          <mxGeometry width="50" height="50" relative="1" as="geometry">
            <mxPoint x="765" y="570" as="sourcePoint" />
            <mxPoint x="815" y="520" as="targetPoint" />
          </mxGeometry>
        </mxCell>
        <mxCell id="C1XkWUGmLGse987wi63i-58" value="" style="endArrow=classic;html=1;rounded=0;exitX=0;exitY=0.5;exitDx=0;exitDy=0;entryX=1;entryY=0.5;entryDx=0;entryDy=0;fontSize=15;movable=0;resizable=0;rotatable=0;deletable=0;editable=0;locked=1;connectable=0;" edge="1" parent="WIyWlLk6GJQsqaUBKTNV-1" source="C1XkWUGmLGse987wi63i-9" target="C1XkWUGmLGse987wi63i-59">
          <mxGeometry width="50" height="50" relative="1" as="geometry">
            <mxPoint x="230" y="690" as="sourcePoint" />
            <mxPoint x="-40" y="490" as="targetPoint" />
          </mxGeometry>
        </mxCell>
        <mxCell id="C1XkWUGmLGse987wi63i-59" value="" style="shape=orEllipse;perimeter=ellipsePerimeter;whiteSpace=wrap;html=1;backgroundOutline=1;fontSize=15;movable=0;resizable=0;rotatable=0;deletable=0;editable=0;locked=1;connectable=0;" vertex="1" parent="WIyWlLk6GJQsqaUBKTNV-1">
          <mxGeometry x="-50" y="470" width="40" height="40" as="geometry" />
        </mxCell>
        <mxCell id="C1XkWUGmLGse987wi63i-60" value="" style="shape=orEllipse;perimeter=ellipsePerimeter;whiteSpace=wrap;html=1;backgroundOutline=1;fontSize=15;movable=0;resizable=0;rotatable=0;deletable=0;editable=0;locked=1;connectable=0;" vertex="1" parent="WIyWlLk6GJQsqaUBKTNV-1">
          <mxGeometry x="735" y="130" width="40" height="40" as="geometry" />
        </mxCell>
        <mxCell id="C1XkWUGmLGse987wi63i-61" value="" style="endArrow=classic;html=1;rounded=0;exitX=0.5;exitY=1;exitDx=0;exitDy=0;entryX=0.5;entryY=0;entryDx=0;entryDy=0;fontSize=15;movable=0;resizable=0;rotatable=0;deletable=0;editable=0;locked=1;connectable=0;" edge="1" parent="WIyWlLk6GJQsqaUBKTNV-1" source="C1XkWUGmLGse987wi63i-60" target="C1XkWUGmLGse987wi63i-35">
          <mxGeometry width="50" height="50" relative="1" as="geometry">
            <mxPoint x="55" y="630" as="sourcePoint" />
            <mxPoint x="105" y="580" as="targetPoint" />
          </mxGeometry>
        </mxCell>
        <mxCell id="C1XkWUGmLGse987wi63i-66" value="&lt;font style=&quot;font-size: 18px;&quot;&gt;Start&lt;/font&gt;" style="ellipse;whiteSpace=wrap;html=1;movable=0;resizable=0;rotatable=0;deletable=0;editable=0;locked=1;connectable=0;" vertex="1" parent="WIyWlLk6GJQsqaUBKTNV-1">
          <mxGeometry x="160" y="-340" width="120" height="80" as="geometry" />
        </mxCell>
        <mxCell id="C1XkWUGmLGse987wi63i-67" value="" style="endArrow=classic;html=1;rounded=0;exitX=0.5;exitY=1;exitDx=0;exitDy=0;entryX=0.5;entryY=0;entryDx=0;entryDy=0;movable=0;resizable=0;rotatable=0;deletable=0;editable=0;locked=1;connectable=0;" edge="1" parent="WIyWlLk6GJQsqaUBKTNV-1" source="C1XkWUGmLGse987wi63i-66" target="C1XkWUGmLGse987wi63i-20">
          <mxGeometry width="50" height="50" relative="1" as="geometry">
            <mxPoint x="130" y="500" as="sourcePoint" />
            <mxPoint x="180" y="450" as="targetPoint" />
          </mxGeometry>
        </mxCell>
        <mxCell id="C1XkWUGmLGse987wi63i-68" value="&lt;font style=&quot;font-size: 15px;&quot;&gt;End&lt;/font&gt;" style="text;html=1;align=center;verticalAlign=middle;whiteSpace=wrap;rounded=0;movable=0;resizable=0;rotatable=0;deletable=0;editable=0;locked=1;connectable=0;" vertex="1" parent="WIyWlLk6GJQsqaUBKTNV-1">
          <mxGeometry x="40" y="459" width="60" height="30" as="geometry" />
        </mxCell>
      </root>
    </mxGraphModel>
  </diagram>
</mxfile>
